<svg width="40" height="40" viewBox="0 0 40 40" fill="none" xmlns="http://www.w3.org/2000/svg">
<path d="M7 3H33C34.1046 3 35 3.89543 35 5V30C35 31.1046 34.1046 32 33 32H7C5.89543 32 5 31.1046 5 30V5C5 3.89543 5.89543 3 7 3Z" fill="#EB5717"/>
<foreignObject x="-24.542" y="-27.542" width="89.0839" height="95.0839"><div xmlns="http://www.w3.org/1999/xhtml" style="backdrop-filter:blur(14.27px);clip-path:url(#bgblur_0_1069_374_clip_path);height:100%;width:100%"></div></foreignObject><g data-figma-bg-blur-radius="28.542">
<path d="M6.5 1H31.0132C32.1177 1 33.0132 1.89543 33.0132 3V9.29648C33.0132 9.79538 33.3809 10.218 33.875 10.2869L34.7072 10.403C35.4484 10.5064 36 11.1403 36 11.8886V36.5C36 37.8807 34.8807 39 33.5 39H6.5C5.11929 39 4 37.8807 4 36.5V3.5C4 2.11929 5.11929 1 6.5 1Z" fill="url(#paint0_linear_1069_374)"/>
<path d="M6.5 1H31.0132C32.1177 1 33.0132 1.89543 33.0132 3V9.29648C33.0132 9.79538 33.3809 10.218 33.875 10.2869L34.7072 10.403C35.4484 10.5064 36 11.1403 36 11.8886V36.5C36 37.8807 34.8807 39 33.5 39H6.5C5.11929 39 4 37.8807 4 36.5V3.5C4 2.11929 5.11929 1 6.5 1Z" fill="url(#paint1_radial_1069_374)"/>
</g>
<path d="M31.0132 1.5C31.4274 1.5 31.8024 1.66789 32.0738 1.93934C32.3453 2.21079 32.5132 2.58579 32.5132 3V9.29648C32.5132 9.67066 32.6511 10.0162 32.8816 10.2811C33.1121 10.5461 33.4353 10.7304 33.8059 10.7821L34.6382 10.8982C34.8852 10.9327 35.1007 11.0555 35.2544 11.2322C35.4081 11.4088 35.5 11.6392 35.5 11.8886V36.5C35.5 37.0523 35.2761 37.5523 34.9142 37.9142C34.5523 38.2761 34.0523 38.5 33.5 38.5H6.5C5.94772 38.5 5.44772 38.2761 5.08579 37.9142C4.72386 37.5523 4.5 37.0523 4.5 36.5V3.5C4.5 2.94772 4.72386 2.44772 5.08579 2.08579C5.44772 1.72386 5.94772 1.5 6.5 1.5H31.0132Z" fill="url(#paint2_radial_1069_374)" stroke="#EB5717" stroke-opacity="0.13"/>
<g opacity="0.12">
<path d="M19.5066 13.0027C15.2153 13.0027 11.7366 16.4814 11.7366 20.7727C11.7366 25.0639 15.2153 28.5025 19.5066 28.5025C23.7978 28.5025 27.2766 25.0639 27.2766 20.7727H19.5066V13.0027Z" fill="#EB5717"/>
<path d="M28.2551 19.5172C28.2551 15.2259 24.7764 11.7472 20.4851 11.7472V19.5172H28.2551Z" fill="#EB5717"/>
</g>
<path d="M12 20.0029H15.4707C17.9632 20.0031 19.9842 22.0241 19.9844 24.5166C19.9844 27.0093 17.9633 29.0301 15.4707 29.0303H12V33.5C12 33.7761 11.7761 34 11.5 34H9.5C9.22386 34 9 33.7761 9 33.5V20.5C9 20.2239 9.22386 20 9.5 20H12V20.0029ZM12 26.0303H15.4707C16.3064 26.0301 16.9844 25.3524 16.9844 24.5166C16.9842 23.681 16.3063 23.0031 15.4707 23.0029H12V26.0303Z" fill="#EB5717"/>
<defs>
<clipPath id="bgblur_0_1069_374_clip_path" transform="translate(24.542 27.542)"><path d="M6.5 1H31.0132C32.1177 1 33.0132 1.89543 33.0132 3V9.29648C33.0132 9.79538 33.3809 10.218 33.875 10.2869L34.7072 10.403C35.4484 10.5064 36 11.1403 36 11.8886V36.5C36 37.8807 34.8807 39 33.5 39H6.5C5.11929 39 4 37.8807 4 36.5V3.5C4 2.11929 5.11929 1 6.5 1Z"/>
</clipPath><linearGradient id="paint0_linear_1069_374" x1="19.2993" y1="-2.48111" x2="1.71478" y2="28.6822" gradientUnits="userSpaceOnUse">
<stop stop-color="white" stop-opacity="0.72"/>
<stop offset="0.333391" stop-color="#FEFEFF" stop-opacity="0.899918"/>
<stop offset="1" stop-color="#FAF6F5"/>
</linearGradient>
<radialGradient id="paint1_radial_1069_374" cx="0" cy="0" r="1" gradientUnits="userSpaceOnUse" gradientTransform="translate(21.0577 1) rotate(90) scale(0.505757 25.9273)">
<stop stop-color="white" stop-opacity="0.71215"/>
<stop offset="1" stop-color="white" stop-opacity="0.01"/>
</radialGradient>
<radialGradient id="paint2_radial_1069_374" cx="0" cy="0" r="1" gradientUnits="userSpaceOnUse" gradientTransform="translate(21.0261 1.49853) rotate(90) scale(0.492444 0.345682)">
<stop stop-color="white" stop-opacity="0.71215"/>
<stop offset="1" stop-color="white" stop-opacity="0.01"/>
</radialGradient>
</defs>
</svg>
